<svg xmlns="http://www.w3.org/2000/svg" width="600" height="400" viewBox="0 0 600 400"><rect width="100%" height="100%" fill="#DDDDDD"/><path fill="#999999" d="M143.96 178.355h5.8v35.43h-3.38q-.78 0-1.31-.26-.52-.25-1.01-.87l-18.5-23.62q.14 1.62.14 2.99v21.76h-5.8v-35.43h3.45q.42 0 .73.04.3.04.53.15.24.11.46.32.22.2.49.55l18.57 23.71q-.07-.86-.12-1.69t-.05-1.54zm23.86 9.9q2.79 0 5.08.91 2.29.9 3.92 2.57t2.52 4.07q.88 2.4.88 5.36 0 2.99-.88 5.39-.89 2.4-2.52 4.09t-3.92 2.6-5.08.91q-2.82 0-5.12-.91t-3.93-2.6-2.53-4.09q-.89-2.4-.89-5.39 0-2.96.89-5.36.9-2.4 2.53-4.07t3.93-2.57q2.3-.91 5.12-.91m0 21.24q3.14 0 4.64-2.1 1.51-2.11 1.51-6.18t-1.51-6.2q-1.5-2.13-4.64-2.13-3.18 0-4.72 2.15-1.53 2.14-1.53 6.18t1.53 6.16q1.54 2.12 4.72 2.12m25.41 4.68q-3.29 0-5.04-1.85t-1.75-5.11v-14.03h-2.57q-.49 0-.84-.32-.34-.32-.34-.96v-2.4l4.04-.66 1.28-6.86q.12-.49.46-.76.35-.27.89-.27h3.13v7.91h6.71v4.32h-6.71v13.62q0 1.17.58 1.83.57.67 1.58.67.56 0 .94-.14.38-.13.66-.28t.5-.28q.23-.14.45-.14.27 0 .44.14.17.13.36.4l1.82 2.94q-1.33 1.11-3.04 1.67-1.72.56-3.55.56m21.95-25.53h6.07v25.14h-6.07zm6.91-7.32q0 .78-.32 1.47-.32.68-.85 1.2-.52.51-1.23.82-.71.3-1.52.3-.79 0-1.48-.3-.7-.31-1.22-.82-.51-.52-.82-1.2-.3-.69-.3-1.47 0-.81.3-1.52.31-.71.82-1.23.52-.51 1.22-.82.69-.3 1.48-.3.81 0 1.52.3.71.31 1.23.82.53.52.85 1.23t.32 1.52m11.39 32.46h-6.05v-25.14h3.7q1.17 0 1.54 1.11l.39 1.86q.67-.74 1.39-1.35t1.54-1.05 1.77-.7q.94-.26 2.07-.26 2.37 0 3.9 1.29 1.53 1.28 2.29 3.42.59-1.25 1.47-2.15.89-.89 1.94-1.46 1.05-.56 2.24-.83t2.39-.27q2.08 0 3.7.64 1.62.63 2.72 1.86t1.68 2.99q.57 1.76.57 4.04v16h-6.05v-16q0-2.4-1.05-3.61-1.06-1.21-3.09-1.21-.93 0-1.73.31-.79.32-1.39.92t-.95 1.51q-.34.91-.34 2.08v16h-6.07v-16q0-2.52-1.02-3.67t-2.98-1.15q-1.32 0-2.46.64-1.14.65-2.12 1.78zm48.27-6.49v-4.24q-2.63.12-4.41.45-1.79.33-2.87.85-1.08.51-1.54 1.2-.47.68-.47 1.49 0 1.59.94 2.28.95.69 2.47.69 1.86 0 3.22-.68 1.36-.67 2.66-2.04m-12.79-13.21-1.08-1.93q4.33-3.97 10.44-3.97 2.2 0 3.94.72t2.94 2.01 1.82 3.07q.63 1.79.63 3.92v15.88h-2.74q-.86 0-1.33-.26-.46-.25-.73-1.04l-.54-1.81q-.96.86-1.86 1.51-.91.64-1.89 1.09-.98.44-2.09.67-1.12.23-2.47.23-1.59 0-2.94-.43-1.34-.43-2.32-1.28-.98-.86-1.52-2.13-.54-1.28-.54-2.97 0-.95.32-1.9.31-.94 1.04-1.8.72-.86 1.87-1.62t2.83-1.32 3.91-.92q2.23-.35 5.1-.43v-1.47q0-2.52-1.08-3.73t-3.11-1.21q-1.47 0-2.44.34t-1.7.77q-.74.43-1.34.77t-1.34.34q-.63 0-1.07-.33t-.71-.77m33.56 6.52q1.13 0 1.96-.31.83-.3 1.39-.84.55-.54.83-1.3t.28-1.67q0-1.86-1.11-2.95-1.12-1.09-3.35-1.09t-3.34 1.09q-1.12 1.09-1.12 2.95 0 .89.28 1.64.29.76.84 1.32.55.55 1.39.85.85.31 1.95.31m6.84 14.31q0-.74-.44-1.2-.45-.47-1.2-.73-.76-.25-1.78-.38-1.02-.12-2.16-.18t-2.35-.11-2.36-.2q-1.01.57-1.63 1.33-.63.76-.63 1.76 0 .66.33 1.24.33.57 1.06.99.72.42 1.87.65t2.82.23q1.69 0 2.91-.25 1.23-.26 2.03-.72.79-.45 1.16-1.07.37-.63.37-1.36m-1.2-25.41h7.22v2.25q0 1.08-1.29 1.33l-2.26.41q.52 1.3.52 2.85 0 1.86-.75 3.36-.75 1.51-2.07 2.56-1.32 1.06-3.13 1.63-1.8.58-3.88.58-.73 0-1.42-.07-.69-.08-1.35-.2-1.17.71-1.17 1.59 0 .76.69 1.12.7.35 1.85.5 1.16.15 2.63.18 1.47.04 3.01.16 1.54.13 3.01.43 1.47.31 2.62.97 1.16.66 1.85 1.8.7 1.14.7 2.93 0 1.66-.82 3.23t-2.37 2.8q-1.56 1.22-3.83 1.97-2.26.74-5.15.74-2.85 0-4.95-.55-2.11-.55-3.51-1.47-1.39-.92-2.08-2.12-.68-1.2-.68-2.49 0-1.77 1.06-2.96 1.07-1.19 2.93-1.9-1.01-.51-1.59-1.37-.59-.86-.59-2.25 0-.57.21-1.17.2-.6.61-1.18.4-.59 1.02-1.12.61-.53 1.44-.94-1.91-1.03-3-2.75-1.09-1.71-1.09-4.01 0-1.87.75-3.37.74-1.51 2.08-2.58 1.33-1.06 3.16-1.62 1.83-.57 3.98-.57 1.62 0 3.04.33t2.6.97m15.82 8.82h11.42q0-1.18-.33-2.22t-.99-1.82q-.66-.79-1.68-1.24t-2.37-.45q-2.62 0-4.12 1.49-1.51 1.5-1.93 4.24m15.44 3.65h-15.56q.15 1.94.69 3.35.54 1.4 1.42 2.32t2.09 1.37q1.22.46 2.69.46t2.53-.35q1.07-.34 1.86-.75.8-.42 1.4-.76.6-.35 1.16-.35.76 0 1.13.57l1.74 2.2q-1 1.18-2.25 1.97-1.25.8-2.61 1.28t-2.77.67q-1.41.2-2.73.2-2.63 0-4.88-.87t-3.92-2.57q-1.67-1.71-2.62-4.22-.96-2.51-.96-5.82 0-2.57.84-4.84.83-2.26 2.39-3.94 1.55-1.68 3.79-2.66t5.06-.98q2.38 0 4.39.76t3.45 2.22q1.45 1.46 2.27 3.57.82 2.12.82 4.84 0 1.38-.29 1.85-.3.48-1.13.48m25.67 11.81h-6.05v-20.58l-2.18-.34q-.71-.15-1.14-.51-.43-.35-.43-1.01v-2.48h3.75v-1.86q0-2.15.65-3.87.65-1.71 1.86-2.92 1.22-1.2 2.96-1.83 1.74-.64 3.92-.64 1.74 0 3.23.47l-.12 3.03q-.03.35-.2.56-.17.2-.45.31t-.65.15-.78.04q-1.08 0-1.93.23-.84.23-1.43.81-.59.57-.9 1.52-.3.94-.3 2.34v1.66h6.54v4.32h-6.35zm20.88-25.53q2.79 0 5.08.91 2.29.9 3.92 2.57t2.51 4.07q.89 2.4.89 5.36 0 2.99-.89 5.39-.88 2.4-2.51 4.09t-3.92 2.6-5.08.91q-2.82 0-5.12-.91-2.31-.91-3.93-2.6-1.63-1.69-2.53-4.09-.89-2.4-.89-5.39 0-2.96.89-5.36.9-2.4 2.53-4.07 1.62-1.67 3.93-2.57 2.3-.91 5.12-.91m0 21.24q3.13 0 4.64-2.1 1.51-2.11 1.51-6.18t-1.51-6.2-4.64-2.13q-3.19 0-4.72 2.15-1.53 2.14-1.53 6.18t1.53 6.16 4.72 2.12m32.63-20.85h6.05v25.14h-3.7q-1.2 0-1.51-1.1l-.42-2.01q-1.54 1.57-3.41 2.53-1.86.97-4.38.97-2.06 0-3.64-.7-1.58-.69-2.66-1.97-1.08-1.27-1.63-3.02-.55-1.76-.55-3.86v-15.98h6.05v15.98q0 2.3 1.07 3.56 1.06 1.26 3.2 1.26 1.56 0 2.94-.69 1.37-.7 2.59-1.93zm17.27 1.11.42 1.98q.76-.76 1.61-1.41.84-.65 1.78-1.1.95-.45 2.03-.71 1.07-.26 2.35-.26 2.06 0 3.65.7t2.66 1.96q1.06 1.26 1.61 3.01t.55 3.86v16h-6.05v-16q0-2.3-1.05-3.56t-3.21-1.26q-1.57 0-2.94.71t-2.6 1.93v18.18h-6.05v-25.14h3.7q1.18 0 1.54 1.11m38.18 16.58v-11.27q-1.03-1.25-2.25-1.76-1.21-.52-2.61-.52-1.37 0-2.47.52-1.1.51-1.89 1.55-.78 1.04-1.2 2.65-.41 1.6-.41 3.78 0 2.21.35 3.74.36 1.53 1.02 2.5t1.62 1.4q.95.43 2.13.43 1.88 0 3.21-.79 1.32-.78 2.5-2.23m0-28.96h6.05v36.41h-3.7q-1.2 0-1.52-1.1l-.52-2.43q-1.51 1.74-3.49 2.82-1.97 1.08-4.59 1.08-2.06 0-3.77-.86-1.72-.86-2.96-2.49-1.23-1.63-1.91-4.03-.67-2.4-.67-5.49 0-2.79.76-5.19t2.18-4.16q1.42-1.77 3.4-2.76 1.99-.99 4.46-.99 2.11 0 3.61.66 1.49.66 2.67 1.79z"/></svg>